<svg width="35" height="36" viewBox="0 0 35 36" fill="none" xmlns="http://www.w3.org/2000/svg">
<path d="M18.125 35.1875C17.8906 35.3438 17.6562 35.4219 17.4219 35.4219C17.1094 35.4219 16.9531 35.3438 16.7969 35.1875L0.3125 18.625C0.078125 18.4688 0 18.3125 0 18C0 17.7656 0.078125 17.5312 0.3125 17.375L16.7969 0.8125C16.9531 0.65625 17.1094 0.578125 17.4219 0.578125C17.6562 0.578125 17.8906 0.65625 18.125 0.8125L18.6719 1.4375C18.8281 1.59375 18.9062 1.82812 18.9062 2.0625C18.9062 2.375 18.8281 2.60938 18.6719 2.76562L4.6875 16.6719H34.0625C34.2969 16.6719 34.5312 16.8281 34.6875 16.9844C34.8438 17.1406 35 17.375 35 17.6094V18.3906C35 18.7031 34.8438 18.9375 34.6875 19.0938C34.5312 19.25 34.2969 19.3281 34.0625 19.3281H4.6875L18.6719 33.2344C18.8281 33.4688 18.9062 33.7031 18.9062 33.9375C18.9062 34.25 18.8281 34.4062 18.6719 34.5625L18.125 35.1875Z" fill="white"/>
</svg>
