<svg width="40" height="36" viewBox="0 0 40 36" fill="none" xmlns="http://www.w3.org/2000/svg">
<path d="M20 0.5C23.5938 0.5 26.9531 1.4375 30 3.23438C33.0469 5.03125 35.4688 7.45312 37.2656 10.5C39.0625 13.5469 40 16.9062 40 20.5V24.4844C40 25.0312 39.7656 25.4219 39.375 25.5781L37.5 26.6719V26.75C37.5 28.3125 37.1094 29.7969 36.3281 31.125C35.5469 32.5312 34.4531 33.5469 33.125 34.3281C31.7188 35.1094 30.3125 35.5 28.75 35.5H26.875C26.3281 35.5 25.8594 35.3438 25.5469 34.9531C25.1562 34.6406 25 34.1719 25 33.625V19.875C25 19.4062 25.1562 18.9375 25.5469 18.5469C25.8594 18.2344 26.3281 18 26.875 18H28.75C30.625 18 32.3438 18.625 33.9062 19.7188C35.3906 20.8125 36.4062 22.2969 37.0312 24.0156L37.5 23.7812V20.5C37.5 17.375 36.7188 14.4062 35.1562 11.75C33.5938 9.09375 31.4062 6.90625 28.75 5.34375C26.0938 3.78125 23.125 3 20 3C16.7969 3 13.8281 3.78125 11.1719 5.34375C8.51562 6.90625 6.40625 9.09375 4.84375 11.75C3.28125 14.4062 2.5 17.375 2.5 20.5V23.7812L2.96875 24.0156C3.51562 22.2969 4.53125 20.8125 6.09375 19.7188C7.57812 18.625 9.29688 18 11.25 18H13.125C13.5938 18 14.0625 18.2344 14.4531 18.5469C14.7656 18.9375 15 19.4062 15 19.875V33.625C15 34.1719 14.7656 34.6406 14.4531 34.9531C14.0625 35.3438 13.5938 35.5 13.125 35.5H11.25C9.6875 35.5 8.20312 35.1094 6.875 34.3281C5.46875 33.5469 4.45312 32.5312 3.67188 31.125C2.89062 29.7969 2.5 28.3125 2.5 26.75V26.6719L0.625 25.5781C0.15625 25.4219 0 25.0312 0 24.4844V20.5C0 16.9062 0.859375 13.5469 2.65625 10.5C4.45312 7.45312 6.875 5.03125 9.92188 3.23438C12.9688 1.4375 16.3281 0.5 20 0.5ZM11.25 20.5C9.53125 20.5 8.04688 21.125 6.79688 22.375C5.54688 23.625 5 25.0312 5 26.75C5 28.4688 5.54688 29.9531 6.79688 31.2031C8.04688 32.4531 9.53125 33 11.25 33H12.5V20.5H11.25ZM28.75 33C30.4688 33 31.875 32.4531 33.125 31.2031C34.375 29.9531 35 28.4688 35 26.75C35 25.0312 34.375 23.625 33.125 22.375C31.875 21.125 30.4688 20.5 28.75 20.5H27.5V33H28.75Z" fill="white"/>
</svg>
