<svg width="403" height="6" viewBox="0 0 403 6" fill="none" xmlns="http://www.w3.org/2000/svg">
<path d="M397.333 2.99997C397.333 4.47273 398.527 5.66664 400 5.66664C401.473 5.66664 402.667 4.47273 402.667 2.99997C402.667 1.52721 401.473 0.333307 400 0.333307C398.527 0.333308 397.333 1.52722 397.333 2.99997ZM1.42879e-07 3.5L1 3.5L1 2.5L-1.42879e-07 2.5L1.42879e-07 3.5ZM3 3.5L5 3.5L5 2.5L3 2.5L3 3.5ZM7 3.5L9 3.5L9 2.5L7 2.5L7 3.5ZM11 3.5L13 3.5L13 2.5L11 2.5L11 3.5ZM15 3.5L17 3.5L17 2.5L15 2.5L15 3.5ZM19 3.5L21 3.5L21 2.5L19 2.5L19 3.5ZM23 3.5L25 3.5L25 2.5L23 2.5L23 3.5ZM27 3.5L29 3.5L29 2.5L27 2.5L27 3.5ZM31 3.5L33 3.5L33 2.5L31 2.5L31 3.5ZM35 3.5L37 3.5L37 2.5L35 2.5L35 3.5ZM39 3.5L41 3.5L41 2.5L39 2.5L39 3.5ZM43 3.5L45 3.5L45 2.5L43 2.5L43 3.5ZM47 3.5L49 3.5L49 2.5L47 2.5L47 3.5ZM51 3.5L53 3.5L53 2.5L51 2.5L51 3.5ZM55 3.5L57 3.5L57 2.5L55 2.5L55 3.5ZM59 3.5L61 3.5L61 2.5L59 2.5L59 3.5ZM63 3.5L65 3.5L65 2.5L63 2.5L63 3.5ZM67 3.5L69 3.5L69 2.5L67 2.5L67 3.5ZM71 3.5L73 3.5L73 2.5L71 2.5L71 3.5ZM75 3.5L77 3.5L77 2.5L75 2.5L75 3.5ZM79 3.49999L81 3.49999L81 2.49999L79 2.49999L79 3.49999ZM83 3.49999L85 3.49999L85 2.49999L83 2.49999L83 3.49999ZM87 3.49999L89 3.49999L89 2.49999L87 2.49999L87 3.49999ZM91 3.49999L93 3.49999L93 2.49999L91 2.49999L91 3.49999ZM95 3.49999L97 3.49999L97 2.49999L95 2.49999L95 3.49999ZM99 3.49999L101 3.49999L101 2.49999L99 2.49999L99 3.49999ZM103 3.49999L105 3.49999L105 2.49999L103 2.49999L103 3.49999ZM107 3.49999L109 3.49999L109 2.49999L107 2.49999L107 3.49999ZM111 3.49999L113 3.49999L113 2.49999L111 2.49999L111 3.49999ZM115 3.49999L117 3.49999L117 2.49999L115 2.49999L115 3.49999ZM119 3.49999L121 3.49999L121 2.49999L119 2.49999L119 3.49999ZM123 3.49999L125 3.49999L125 2.49999L123 2.49999L123 3.49999ZM127 3.49999L129 3.49999L129 2.49999L127 2.49999L127 3.49999ZM131 3.49999L133 3.49999L133 2.49999L131 2.49999L131 3.49999ZM135 3.49999L137 3.49999L137 2.49999L135 2.49999L135 3.49999ZM139 3.49999L141 3.49999L141 2.49999L139 2.49999L139 3.49999ZM143 3.49999L145 3.49999L145 2.49999L143 2.49999L143 3.49999ZM147 3.49999L149 3.49999L149 2.49999L147 2.49999L147 3.49999ZM151 3.49999L153 3.49999L153 2.49999L151 2.49999L151 3.49999ZM155 3.49999L157 3.49999L157 2.49999L155 2.49999L155 3.49999ZM159 3.49999L161 3.49999L161 2.49999L159 2.49999L159 3.49999ZM163 3.49999L165 3.49999L165 2.49999L163 2.49999L163 3.49999ZM167 3.49999L169 3.49999L169 2.49999L167 2.49999L167 3.49999ZM171 3.49999L173 3.49999L173 2.49999L171 2.49999L171 3.49999ZM175 3.49999L177 3.49999L177 2.49999L175 2.49999L175 3.49999ZM179 3.49999L181 3.49999L181 2.49999L179 2.49999L179 3.49999ZM183 3.49999L185 3.49999L185 2.49999L183 2.49999L183 3.49999ZM187 3.49999L189 3.49999L189 2.49999L187 2.49999L187 3.49999ZM191 3.49999L193 3.49999L193 2.49999L191 2.49999L191 3.49999ZM195 3.49999L197 3.49999L197 2.49999L195 2.49999L195 3.49999ZM199 3.49999L201 3.49999L201 2.49999L199 2.49999L199 3.49999ZM203 3.49999L205 3.49999L205 2.49999L203 2.49999L203 3.49999ZM207 3.49999L209 3.49999L209 2.49999L207 2.49999L207 3.49999ZM211 3.49999L213 3.49999L213 2.49999L211 2.49999L211 3.49999ZM215 3.49999L217 3.49999L217 2.49999L215 2.49999L215 3.49999ZM219 3.49999L221 3.49999L221 2.49999L219 2.49999L219 3.49999ZM223 3.49999L225 3.49999L225 2.49999L223 2.49999L223 3.49999ZM227 3.49999L229 3.49999L229 2.49999L227 2.49999L227 3.49999ZM231 3.49999L233 3.49998L233 2.49998L231 2.49999L231 3.49999ZM235 3.49998L237 3.49998L237 2.49998L235 2.49998L235 3.49998ZM239 3.49998L241 3.49998L241 2.49998L239 2.49998L239 3.49998ZM243 3.49998L245 3.49998L245 2.49998L243 2.49998L243 3.49998ZM247 3.49998L249 3.49998L249 2.49998L247 2.49998L247 3.49998ZM251 3.49998L253 3.49998L253 2.49998L251 2.49998L251 3.49998ZM255 3.49998L257 3.49998L257 2.49998L255 2.49998L255 3.49998ZM259 3.49998L261 3.49998L261 2.49998L259 2.49998L259 3.49998ZM263 3.49998L265 3.49998L265 2.49998L263 2.49998L263 3.49998ZM267 3.49998L269 3.49998L269 2.49998L267 2.49998L267 3.49998ZM271 3.49998L273 3.49998L273 2.49998L271 2.49998L271 3.49998ZM275 3.49998L277 3.49998L277 2.49998L275 2.49998L275 3.49998ZM279 3.49998L281 3.49998L281 2.49998L279 2.49998L279 3.49998ZM283 3.49998L285 3.49998L285 2.49998L283 2.49998L283 3.49998ZM287 3.49998L289 3.49998L289 2.49998L287 2.49998L287 3.49998ZM291 3.49998L293 3.49998L293 2.49998L291 2.49998L291 3.49998ZM295 3.49998L297 3.49998L297 2.49998L295 2.49998L295 3.49998ZM299 3.49998L301 3.49998L301 2.49998L299 2.49998L299 3.49998ZM303 3.49998L305 3.49998L305 2.49998L303 2.49998L303 3.49998ZM307 3.49998L309 3.49998L309 2.49998L307 2.49998L307 3.49998ZM311 3.49998L313 3.49998L313 2.49998L311 2.49998L311 3.49998ZM315 3.49998L317 3.49998L317 2.49998L315 2.49998L315 3.49998ZM319 3.49998L321 3.49998L321 2.49998L319 2.49998L319 3.49998ZM323 3.49998L325 3.49998L325 2.49998L323 2.49998L323 3.49998ZM327 3.49998L329 3.49998L329 2.49998L327 2.49998L327 3.49998ZM331 3.49998L333 3.49998L333 2.49998L331 2.49998L331 3.49998ZM335 3.49998L337 3.49998L337 2.49998L335 2.49998L335 3.49998ZM339 3.49998L341 3.49998L341 2.49998L339 2.49998L339 3.49998ZM343 3.49998L345 3.49998L345 2.49998L343 2.49998L343 3.49998ZM347 3.49998L349 3.49998L349 2.49998L347 2.49998L347 3.49998ZM351 3.49998L353 3.49998L353 2.49998L351 2.49998L351 3.49998ZM355 3.49998L357 3.49998L357 2.49998L355 2.49998L355 3.49998ZM359 3.49998L361 3.49998L361 2.49998L359 2.49998L359 3.49998ZM363 3.49998L365 3.49998L365 2.49998L363 2.49998L363 3.49998ZM367 3.49998L369 3.49998L369 2.49998L367 2.49998L367 3.49998ZM371 3.49998L373 3.49998L373 2.49998L371 2.49998L371 3.49998ZM375 3.49998L377 3.49998L377 2.49998L375 2.49998L375 3.49998ZM379 3.49998L381 3.49998L381 2.49998L379 2.49998L379 3.49998ZM383 3.49998L385 3.49998L385 2.49998L383 2.49998L383 3.49998ZM387 3.49998L389 3.49997L389 2.49997L387 2.49998L387 3.49998ZM391 3.49997L393 3.49997L393 2.49997L391 2.49997L391 3.49997ZM395 3.49997L397 3.49997L397 2.49997L395 2.49997L395 3.49997ZM399 3.49997L400 3.49997L400 2.49997L399 2.49997L399 3.49997Z" fill="white"/>
</svg>
