<svg width="404" height="6" viewBox="0 0 404 6" fill="none" xmlns="http://www.w3.org/2000/svg">
<path d="M0.333333 3C0.333334 4.47276 1.52724 5.66667 3 5.66667C4.47276 5.66667 5.66667 4.47276 5.66667 3C5.66667 1.52724 4.47276 0.333333 3 0.333333C1.52724 0.333333 0.333333 1.52724 0.333333 3ZM403 3.49997C403.276 3.49997 403.5 3.27612 403.5 2.99997C403.5 2.72383 403.276 2.49997 403 2.49997L403 3.49997ZM3 3.5L4 3.5L4 2.5L3 2.5L3 3.5ZM6 3.5L8 3.5L8 2.5L6 2.5L6 3.5ZM10 3.5L12 3.5L12 2.5L10 2.5L10 3.5ZM14 3.5L16 3.5L16 2.5L14 2.5L14 3.5ZM18 3.5L20 3.5L20 2.5L18 2.5L18 3.5ZM22 3.5L24 3.5L24 2.5L22 2.5L22 3.5ZM26 3.5L28 3.5L28 2.5L26 2.5L26 3.5ZM30 3.5L32 3.5L32 2.5L30 2.5L30 3.5ZM34 3.5L36 3.5L36 2.5L34 2.5L34 3.5ZM38 3.5L40 3.5L40 2.5L38 2.5L38 3.5ZM42 3.5L44 3.5L44 2.5L42 2.5L42 3.5ZM46 3.5L48 3.5L48 2.5L46 2.5L46 3.5ZM50 3.5L52 3.5L52 2.5L50 2.5L50 3.5ZM54 3.5L56 3.5L56 2.5L54 2.5L54 3.5ZM58 3.5L60 3.5L60 2.5L58 2.5L58 3.5ZM62 3.5L64 3.5L64 2.5L62 2.5L62 3.5ZM66 3.5L68 3.5L68 2.5L66 2.5L66 3.5ZM70 3.5L72 3.5L72 2.5L70 2.5L70 3.5ZM74 3.5L76 3.5L76 2.5L74 2.5L74 3.5ZM78 3.5L80 3.5L80 2.5L78 2.5L78 3.5ZM82 3.49999L84 3.49999L84 2.49999L82 2.49999L82 3.49999ZM86 3.49999L88 3.49999L88 2.49999L86 2.49999L86 3.49999ZM90 3.49999L92 3.49999L92 2.49999L90 2.49999L90 3.49999ZM94 3.49999L96 3.49999L96 2.49999L94 2.49999L94 3.49999ZM98 3.49999L100 3.49999L100 2.49999L98 2.49999L98 3.49999ZM102 3.49999L104 3.49999L104 2.49999L102 2.49999L102 3.49999ZM106 3.49999L108 3.49999L108 2.49999L106 2.49999L106 3.49999ZM110 3.49999L112 3.49999L112 2.49999L110 2.49999L110 3.49999ZM114 3.49999L116 3.49999L116 2.49999L114 2.49999L114 3.49999ZM118 3.49999L120 3.49999L120 2.49999L118 2.49999L118 3.49999ZM122 3.49999L124 3.49999L124 2.49999L122 2.49999L122 3.49999ZM126 3.49999L128 3.49999L128 2.49999L126 2.49999L126 3.49999ZM130 3.49999L132 3.49999L132 2.49999L130 2.49999L130 3.49999ZM134 3.49999L136 3.49999L136 2.49999L134 2.49999L134 3.49999ZM138 3.49999L140 3.49999L140 2.49999L138 2.49999L138 3.49999ZM142 3.49999L144 3.49999L144 2.49999L142 2.49999L142 3.49999ZM146 3.49999L148 3.49999L148 2.49999L146 2.49999L146 3.49999ZM150 3.49999L152 3.49999L152 2.49999L150 2.49999L150 3.49999ZM154 3.49999L156 3.49999L156 2.49999L154 2.49999L154 3.49999ZM158 3.49999L160 3.49999L160 2.49999L158 2.49999L158 3.49999ZM162 3.49999L164 3.49999L164 2.49999L162 2.49999L162 3.49999ZM166 3.49999L168 3.49999L168 2.49999L166 2.49999L166 3.49999ZM170 3.49999L172 3.49999L172 2.49999L170 2.49999L170 3.49999ZM174 3.49999L176 3.49999L176 2.49999L174 2.49999L174 3.49999ZM178 3.49999L180 3.49999L180 2.49999L178 2.49999L178 3.49999ZM182 3.49999L184 3.49999L184 2.49999L182 2.49999L182 3.49999ZM186 3.49999L188 3.49999L188 2.49999L186 2.49999L186 3.49999ZM190 3.49999L192 3.49999L192 2.49999L190 2.49999L190 3.49999ZM194 3.49999L196 3.49999L196 2.49999L194 2.49999L194 3.49999ZM198 3.49999L200 3.49999L200 2.49999L198 2.49999L198 3.49999ZM202 3.49999L204 3.49999L204 2.49999L202 2.49999L202 3.49999ZM206 3.49999L208 3.49999L208 2.49999L206 2.49999L206 3.49999ZM210 3.49999L212 3.49999L212 2.49999L210 2.49999L210 3.49999ZM214 3.49999L216 3.49999L216 2.49999L214 2.49999L214 3.49999ZM218 3.49999L220 3.49999L220 2.49999L218 2.49999L218 3.49999ZM222 3.49999L224 3.49999L224 2.49999L222 2.49999L222 3.49999ZM226 3.49999L228 3.49999L228 2.49999L226 2.49999L226 3.49999ZM230 3.49999L232 3.49999L232 2.49999L230 2.49999L230 3.49999ZM234 3.49999L236 3.49998L236 2.49998L234 2.49999L234 3.49999ZM238 3.49998L240 3.49998L240 2.49998L238 2.49998L238 3.49998ZM242 3.49998L244 3.49998L244 2.49998L242 2.49998L242 3.49998ZM246 3.49998L248 3.49998L248 2.49998L246 2.49998L246 3.49998ZM250 3.49998L252 3.49998L252 2.49998L250 2.49998L250 3.49998ZM254 3.49998L256 3.49998L256 2.49998L254 2.49998L254 3.49998ZM258 3.49998L260 3.49998L260 2.49998L258 2.49998L258 3.49998ZM262 3.49998L264 3.49998L264 2.49998L262 2.49998L262 3.49998ZM266 3.49998L268 3.49998L268 2.49998L266 2.49998L266 3.49998ZM270 3.49998L272 3.49998L272 2.49998L270 2.49998L270 3.49998ZM274 3.49998L276 3.49998L276 2.49998L274 2.49998L274 3.49998ZM278 3.49998L280 3.49998L280 2.49998L278 2.49998L278 3.49998ZM282 3.49998L284 3.49998L284 2.49998L282 2.49998L282 3.49998ZM286 3.49998L288 3.49998L288 2.49998L286 2.49998L286 3.49998ZM290 3.49998L292 3.49998L292 2.49998L290 2.49998L290 3.49998ZM294 3.49998L296 3.49998L296 2.49998L294 2.49998L294 3.49998ZM298 3.49998L300 3.49998L300 2.49998L298 2.49998L298 3.49998ZM302 3.49998L304 3.49998L304 2.49998L302 2.49998L302 3.49998ZM306 3.49998L308 3.49998L308 2.49998L306 2.49998L306 3.49998ZM310 3.49998L312 3.49998L312 2.49998L310 2.49998L310 3.49998ZM314 3.49998L316 3.49998L316 2.49998L314 2.49998L314 3.49998ZM318 3.49998L320 3.49998L320 2.49998L318 2.49998L318 3.49998ZM322 3.49998L324 3.49998L324 2.49998L322 2.49998L322 3.49998ZM326 3.49998L328 3.49998L328 2.49998L326 2.49998L326 3.49998ZM330 3.49998L332 3.49998L332 2.49998L330 2.49998L330 3.49998ZM334 3.49998L336 3.49998L336 2.49998L334 2.49998L334 3.49998ZM338 3.49998L340 3.49998L340 2.49998L338 2.49998L338 3.49998ZM342 3.49998L344 3.49998L344 2.49998L342 2.49998L342 3.49998ZM346 3.49998L348 3.49998L348 2.49998L346 2.49998L346 3.49998ZM350 3.49998L352 3.49998L352 2.49998L350 2.49998L350 3.49998ZM354 3.49998L356 3.49998L356 2.49998L354 2.49998L354 3.49998ZM358 3.49998L360 3.49998L360 2.49998L358 2.49998L358 3.49998ZM362 3.49998L364 3.49998L364 2.49998L362 2.49998L362 3.49998ZM366 3.49998L368 3.49998L368 2.49998L366 2.49998L366 3.49998ZM370 3.49998L372 3.49998L372 2.49998L370 2.49998L370 3.49998ZM374 3.49998L376 3.49998L376 2.49998L374 2.49998L374 3.49998ZM378 3.49998L380 3.49998L380 2.49998L378 2.49998L378 3.49998ZM382 3.49998L384 3.49998L384 2.49998L382 2.49998L382 3.49998ZM386 3.49998L388 3.49998L388 2.49998L386 2.49998L386 3.49998ZM390 3.49998L392 3.49997L392 2.49997L390 2.49998L390 3.49998ZM394 3.49997L396 3.49997L396 2.49997L394 2.49997L394 3.49997ZM398 3.49997L400 3.49997L400 2.49997L398 2.49997L398 3.49997ZM402 3.49997L403 3.49997L403 2.49997L402 2.49997L402 3.49997Z" fill="white"/>
</svg>
