<svg width="124" height="6" viewBox="0 0 124 6" fill="none" xmlns="http://www.w3.org/2000/svg">
<path d="M118.333 3.00001C118.333 4.47277 119.527 5.66668 121 5.66668C122.473 5.66668 123.667 4.47277 123.667 3.00001C123.667 1.52725 122.473 0.333344 121 0.333344C119.527 0.333344 118.333 1.52725 118.333 3.00001ZM-4.37114e-08 3.5L1.00833 3.5L1.00833 2.5L4.37114e-08 2.5L-4.37114e-08 3.5ZM3.025 3.5L5.04167 3.5L5.04167 2.5L3.025 2.5L3.025 3.5ZM7.05833 3.5L9.075 3.5L9.075 2.5L7.05833 2.5L7.05833 3.5ZM11.0917 3.5L13.1083 3.5L13.1083 2.5L11.0917 2.5L11.0917 3.5ZM15.125 3.5L17.1417 3.5L17.1417 2.5L15.125 2.5L15.125 3.5ZM19.1583 3.5L21.175 3.5L21.175 2.5L19.1583 2.5L19.1583 3.5ZM23.1917 3.5L25.2083 3.5L25.2083 2.5L23.1917 2.5L23.1917 3.5ZM27.225 3.5L29.2417 3.5L29.2417 2.5L27.225 2.5L27.225 3.5ZM31.2583 3.5L33.275 3.5L33.275 2.5L31.2583 2.5L31.2583 3.5ZM35.2917 3.5L37.3083 3.5L37.3083 2.5L35.2917 2.5L35.2917 3.5ZM39.325 3.5L41.3417 3.5L41.3417 2.5L39.325 2.5L39.325 3.5ZM43.3583 3.5L45.375 3.5L45.375 2.5L43.3583 2.5L43.3583 3.5ZM47.3917 3.5L49.4083 3.5L49.4083 2.5L47.3917 2.5L47.3917 3.5ZM51.425 3.5L53.4417 3.5L53.4417 2.5L51.425 2.5L51.425 3.5ZM55.4583 3.5L57.475 3.50001L57.475 2.50001L55.4583 2.5L55.4583 3.5ZM59.4917 3.50001L61.5083 3.50001L61.5083 2.50001L59.4917 2.50001L59.4917 3.50001ZM63.525 3.50001L65.5417 3.50001L65.5417 2.50001L63.525 2.50001L63.525 3.50001ZM67.5583 3.50001L69.575 3.50001L69.575 2.50001L67.5583 2.50001L67.5583 3.50001ZM71.5917 3.50001L73.6083 3.50001L73.6083 2.50001L71.5917 2.50001L71.5917 3.50001ZM75.625 3.50001L77.6417 3.50001L77.6417 2.50001L75.625 2.50001L75.625 3.50001ZM79.6584 3.50001L81.675 3.50001L81.675 2.50001L79.6584 2.50001L79.6584 3.50001ZM83.6917 3.50001L85.7084 3.50001L85.7084 2.50001L83.6917 2.50001L83.6917 3.50001ZM87.725 3.50001L89.7417 3.50001L89.7417 2.50001L87.725 2.50001L87.725 3.50001ZM91.7584 3.50001L93.775 3.50001L93.775 2.50001L91.7584 2.50001L91.7584 3.50001ZM95.7917 3.50001L97.8084 3.50001L97.8084 2.50001L95.7917 2.50001L95.7917 3.50001ZM99.8251 3.50001L101.842 3.50001L101.842 2.50001L99.8251 2.50001L99.8251 3.50001ZM103.858 3.50001L105.875 3.50001L105.875 2.50001L103.858 2.50001L103.858 3.50001ZM107.892 3.50001L109.908 3.50001L109.908 2.50001L107.892 2.50001L107.892 3.50001ZM111.925 3.50001L113.942 3.50001L113.942 2.50001L111.925 2.50001L111.925 3.50001ZM115.958 3.50001L117.975 3.50001L117.975 2.50001L115.958 2.50001L115.958 3.50001ZM119.992 3.50001L121 3.50001L121 2.50001L119.992 2.50001L119.992 3.50001Z" fill="white"/>
</svg>
