<svg width="50" height="38" viewBox="0 0 50 38" fill="none" xmlns="http://www.w3.org/2000/svg">
<path d="M49.375 28C49.5312 28 49.6094 28.0781 49.7656 28.2344C49.9219 28.3906 50 28.4688 50 28.625V29.875C50 30.0312 49.9219 30.1875 49.7656 30.3438C49.6094 30.5 49.5312 30.5 49.375 30.5H44.8438C44.9219 30.9688 45 31.3594 45 31.75C45 33.4688 44.375 34.9531 43.125 36.2031C41.875 37.4531 40.4688 38 38.75 38C37.0312 38 35.5469 37.4531 34.2969 36.2031C33.0469 34.9531 32.5 33.4688 32.5 31.75C32.5 31.3594 32.5 30.9688 32.6562 30.5H17.3438C17.4219 30.9688 17.5 31.3594 17.5 31.75C17.5 33.4688 16.875 34.9531 15.625 36.2031C14.375 37.4531 12.9688 38 11.25 38C9.53125 38 8.04688 37.4531 6.79688 36.2031C5.54688 34.9531 5 33.4688 5 31.75C5 31.3594 5 30.9688 5.15625 30.5H3.82812C2.73438 30.5 1.875 30.1875 1.09375 29.4844C0.3125 28.7812 0 27.9219 0 26.8281V4.17188C0 3.15625 0.3125 2.29688 1.09375 1.59375C1.875 0.890625 2.73438 0.5 3.82812 0.5H28.6719C29.6875 0.5 30.5469 0.890625 31.3281 1.59375C32.1094 2.29688 32.5 3.15625 32.5 4.17188V8H35.9375C37.3438 8 38.5156 8.54688 39.4531 9.48438L46.0156 16.0469C46.9531 16.9844 47.5 18.1562 47.5 19.5625V28H49.375ZM35.9375 10.5H32.5V18H44.375L44.2969 17.7656L37.7344 11.2031C37.1875 10.7344 36.5625 10.5 35.9375 10.5ZM11.25 35.5C12.2656 35.5 13.125 35.1875 13.9062 34.4062C14.6094 33.7031 15 32.8438 15 31.75C15 30.7344 14.6094 29.875 13.9062 29.0938C13.125 28.3906 12.2656 28 11.25 28C10.1562 28 9.29688 28.3906 8.59375 29.0938C7.8125 29.875 7.5 30.7344 7.5 31.75C7.5 32.8438 7.8125 33.7031 8.59375 34.4062C9.29688 35.1875 10.1562 35.5 11.25 35.5ZM16.25 28H30V4.17188C30 3.85938 29.8438 3.625 29.6094 3.39062C29.2969 3.15625 28.9844 3 28.6719 3H3.82812C3.4375 3 3.125 3.15625 2.89062 3.39062C2.57812 3.625 2.5 3.85938 2.5 4.17188V26.8281C2.5 27.1406 2.57812 27.4531 2.89062 27.6875C3.125 27.9219 3.4375 28 3.82812 28H6.25C6.875 27.2188 7.57812 26.6719 8.4375 26.2031C9.29688 25.7344 10.2344 25.5 11.25 25.5C12.1875 25.5 13.125 25.7344 13.9844 26.2031C14.8438 26.6719 15.625 27.2188 16.25 28ZM38.75 35.5C39.7656 35.5 40.625 35.1875 41.4062 34.4062C42.1094 33.7031 42.5 32.8438 42.5 31.75C42.5 30.7344 42.1094 29.875 41.4062 29.0938C40.625 28.3906 39.7656 28 38.75 28C37.6562 28 36.7969 28.3906 36.0938 29.0938C35.3125 29.875 35 30.7344 35 31.75C35 32.8438 35.3125 33.7031 36.0938 34.4062C36.7969 35.1875 37.6562 35.5 38.75 35.5ZM38.75 25.5C39.6875 25.5 40.625 25.7344 41.4844 26.2031C42.3438 26.6719 43.125 27.2188 43.75 28H45V20.5H32.5V28H33.75C34.375 27.2188 35.0781 26.6719 35.9375 26.2031C36.7969 25.7344 37.7344 25.5 38.75 25.5Z" fill="white"/>
</svg>
