<svg width="18" height="19" viewBox="0 0 18 19" fill="none" xmlns="http://www.w3.org/2000/svg">
<path d="M0.734375 9.73438C0.65625 9.65625 0.617188 9.53906 0.617188 9.38281C0.617188 9.26562 0.65625 9.14844 0.734375 9.07031L8.9375 0.90625C9.01562 0.828125 9.09375 0.75 9.25 0.75C9.36719 0.75 9.48438 0.828125 9.5625 0.90625L17.7656 9.07031C17.8438 9.14844 17.8828 9.26562 17.8828 9.38281C17.8828 9.53906 17.8438 9.65625 17.7656 9.73438L16.9844 10.5156C16.9062 10.5938 16.7891 10.6328 16.6719 10.6328C16.5156 10.6328 16.3984 10.5938 16.3203 10.5156L10.2656 4.46094V17.7812C10.2656 17.9375 10.1875 18.0547 10.1094 18.1328C10.0312 18.2109 9.91406 18.25 9.79688 18.25H8.70312C8.54688 18.25 8.42969 18.2109 8.35156 18.1328C8.27344 18.0547 8.23438 17.9375 8.23438 17.7812V4.46094L2.17969 10.5156C2.0625 10.5938 1.94531 10.6328 1.82812 10.6328C1.67188 10.6328 1.59375 10.5938 1.51562 10.5156L0.734375 9.73438Z" fill="black"/>
</svg>
